<svg xmlns="http://www.w3.org/2000/svg" viewBox="0 0 220 220" role="img" aria-labelledby="title desc">
  <title id="title">化实 Logo</title>
  <desc id="desc">卡通恐龙头骨泡在带气泡的烧杯液体中</desc>
  <defs>
    <linearGradient id="glass" x1="0" y1="0" x2="0" y2="1">
      <stop offset="0" stop-color="#effcff" stop-opacity=".9"/>
      <stop offset="1" stop-color="#b9eff1" stop-opacity=".55"/>
    </linearGradient>
    <linearGradient id="liquid" x1="0" y1="0" x2="1" y2="1">
      <stop offset="0" stop-color="#79e6bd"/>
      <stop offset="1" stop-color="#26b98e"/>
    </linearGradient>
    <filter id="shadow" x="-30%" y="-30%" width="160%" height="170%">
      <feDropShadow dx="0" dy="8" stdDeviation="7" flood-color="#0b4f67" flood-opacity=".22"/>
    </filter>
  </defs>
  <g filter="url(#shadow)">
    <path d="M56 31h108c8 0 13 5 13 11s-5 11-13 11h-5l12 111c2 18-10 31-28 31H77c-18 0-30-13-28-31L61 53h-5c-8 0-13-5-13-11s5-11 13-11Z" fill="url(#glass)" stroke="#155c78" stroke-width="7" stroke-linejoin="round"/>
    <path d="M55 119c29-11 74 8 111-2l5 47c2 18-10 31-28 31H77c-18 0-30-13-28-31Z" fill="url(#liquid)" opacity=".96"/>
    <path d="M53 119c35-13 70 9 114-2" fill="none" stroke="#d8fff3" stroke-width="6" stroke-linecap="round"/>
    <g fill="#dffff2" stroke="#1b8e79" stroke-width="3">
      <circle cx="70" cy="151" r="8"/>
      <circle cx="146" cy="161" r="10"/>
      <circle cx="126" cy="133" r="6"/>
      <circle cx="91" cy="178" r="5"/>
    </g>
    <g transform="translate(63 62) rotate(-4 48 38)">
      <path d="M17 25C23 8 39 0 61 3c21 3 34 16 34 32 0 12-8 20-21 23l-5 13-13-3-7 13-15-4 1-13C16 60 8 51 8 39c0-5 3-10 9-14Z" fill="#fff1c9" stroke="#263f4f" stroke-width="6" stroke-linejoin="round"/>
      <path d="M70 56l18 7-4 13-18-5Z" fill="#fff1c9" stroke="#263f4f" stroke-width="5" stroke-linejoin="round"/>
      <ellipse cx="42" cy="29" rx="11" ry="10" fill="#263f4f"/>
      <ellipse cx="72" cy="31" rx="8" ry="9" fill="#263f4f"/>
      <path d="M20 42c8 4 13 10 13 18M57 49c5 3 9 8 10 14" fill="none" stroke="#263f4f" stroke-width="5" stroke-linecap="round"/>
      <path d="M31 66l8 2m11 2 8 2m15-7 8 3" fill="none" stroke="#263f4f" stroke-width="4" stroke-linecap="round"/>
      <circle cx="92" cy="20" r="4" fill="#f3a65a"/>
    </g>
    <path d="M65 45h90" stroke="#ffffff" stroke-width="7" stroke-linecap="round" opacity=".85"/>
  </g>
  <g fill="#78e5f0" stroke="#155c78" stroke-width="3">
    <circle cx="178" cy="82" r="9"/>
    <circle cx="191" cy="57" r="5"/>
    <circle cx="38" cy="91" r="6"/>
  </g>
</svg>
